<?xml version="1.0" standalone="no"?>
<!DOCTYPE svg PUBLIC "-//W3C//DTD SVG 20010904//EN"
 "http://www.w3.org/TR/2001/REC-SVG-20010904/DTD/svg10.dtd">
<svg version="1.0" xmlns="http://www.w3.org/2000/svg"
 width="1500.000000pt" height="1500.000000pt" viewBox="0 0 1500.000000 1500.000000"
 preserveAspectRatio="xMidYMid meet">

<g transform="translate(0.000000,1500.000000) scale(0.100000,-0.100000)"
fill="#000000" stroke="none">
<path d="M7294 11300 c-384 -49 -731 -223 -999 -501 -119 -123 -205 -245 -282
-396 -140 -278 -201 -585 -175 -878 7 -69 19 -161 28 -203 37 -184 137 -426
236 -572 24 -36 313 -465 642 -955 330 -489 624 -927 655 -972 54 -80 81 -100
115 -87 9 4 168 232 353 508 509 759 928 1381 994 1476 119 170 210 388 261
621 19 90 22 133 22 314 0 239 -14 326 -85 540 -181 544 -657 961 -1232 1080
-137 29 -405 41 -533 25z m507 -139 c262 -53 512 -180 719 -363 243 -216 408
-501 481 -830 32 -146 37 -409 11 -563 -38 -220 -123 -434 -243 -607 -97 -141
-349 -516 -822 -1221 l-455 -678 -133 198 c-438 654 -1104 1640 -1142 1691
-102 139 -198 369 -239 575 -29 148 -31 413 -4 557 41 212 130 428 249 605 85
125 285 324 407 404 182 120 392 205 581 235 52 9 105 18 119 20 64 12 378 -4
471 -23z"/>
<path d="M6812 10523 c-7 -3 -19 -18 -27 -33 -23 -44 -22 -616 1 -683 20 -59
88 -123 149 -139 l45 -12 0 -247 0 -248 -32 -3 -33 -3 0 -320 c0 -319 0 -320
23 -353 68 -94 216 -93 286 1 20 27 21 39 21 350 l0 322 -32 3 -33 3 0 245 c0
224 1 245 18 250 85 27 149 80 177 146 22 54 23 644 0 687 -25 49 -87 57 -126
15 -23 -24 -24 -33 -29 -197 -5 -164 -6 -172 -25 -172 -19 0 -20 8 -25 167 -4
149 -7 170 -26 195 -25 33 -74 42 -109 19 -35 -23 -45 -74 -45 -234 0 -122 -2
-144 -16 -149 -28 -11 -34 18 -34 175 0 193 -12 223 -88 221 -15 0 -33 -3 -40
-6z m68 -232 l5 -173 28 -24 c38 -32 81 -31 112 2 24 26 25 32 25 178 0 169 4
196 30 196 27 0 30 -19 30 -181 0 -151 6 -180 39 -206 26 -20 68 -15 98 11
l28 24 5 174 c5 165 6 173 25 173 20 0 20 -7 20 -322 0 -311 -1 -323 -21 -350
-29 -39 -79 -71 -123 -79 -20 -3 -42 -7 -48 -9 -10 -3 -13 -66 -13 -270 l0
-265 -40 0 -40 0 -2 267 -3 267 -42 8 c-58 10 -97 32 -130 75 l-28 36 -3 310
c-2 171 0 317 3 324 3 8 13 13 22 11 16 -3 19 -22 23 -177z m320 -1445 c0
-139 -3 -268 -6 -285 -4 -18 -20 -45 -36 -62 -25 -24 -38 -29 -78 -29 -41 0
-53 5 -79 31 l-31 31 0 284 0 284 115 0 115 0 0 -254z"/>
<path d="M7810 10521 c-197 -60 -313 -314 -255 -559 28 -120 101 -225 192
-279 l43 -25 0 -244 c0 -240 0 -244 -21 -244 -11 0 -29 -5 -40 -10 -18 -10
-19 -24 -19 -311 0 -326 2 -340 56 -391 55 -51 127 -62 192 -29 95 49 101 72
102 428 0 279 -1 293 -19 303 -11 5 -29 10 -40 10 -21 0 -21 4 -21 245 l0 245
41 21 c126 64 209 226 209 409 0 152 -45 266 -140 353 -36 33 -77 61 -106 71
-49 17 -131 20 -174 7z m176 -72 c156 -75 233 -337 157 -532 -35 -89 -103
-165 -173 -195 -19 -8 -38 -19 -42 -26 -4 -6 -8 -127 -8 -268 l0 -258 -40 0
-40 0 0 268 0 267 -56 29 c-67 35 -123 101 -156 183 -19 49 -22 76 -22 173 0
96 3 124 22 172 52 129 148 208 256 208 40 0 74 -7 102 -21z m14 -1617 c0
-219 -3 -279 -14 -301 -35 -67 -122 -82 -178 -32 l-33 29 -3 289 -3 288 116 0
115 0 0 -273z"/>
<path d="M6762 8238 c-18 -18 -15 -44 11 -83 29 -46 55 -54 79 -25 16 20 17
24 2 53 -32 64 -64 83 -92 55z"/>
<path d="M6928 7979 c-10 -5 -18 -19 -18 -29 0 -11 65 -118 145 -240 124 -189
148 -220 169 -220 34 0 51 32 35 63 -26 48 -272 413 -287 425 -19 14 -22 14
-44 1z"/>
<path d="M7100 5640 l0 -310 105 0 105 0 0 310 0 310 -105 0 -105 0 0 -310z"/>
<path d="M8580 5670 l0 -280 105 0 105 0 0 280 0 280 -105 0 -105 0 0 -280z"/>
<path d="M10050 5350 l0 -600 105 0 105 0 0 600 0 600 -105 0 -105 0 0 -600z"/>
<path d="M4863 5920 c-60 -13 -89 -35 -118 -93 -55 -111 -23 -258 68 -313 30
-18 55 -19 478 -19 l445 0 41 27 c54 35 76 85 81 178 3 67 0 81 -25 129 -21
41 -39 60 -68 75 -38 20 -58 21 -450 23 -225 1 -429 -2 -452 -7z m771 -156 c9
-9 16 -32 16 -54 0 -72 8 -70 -360 -70 -368 0 -360 -2 -360 70 0 72 -8 70 360
70 285 0 331 -2 344 -16z"/>
<path d="M6371 5912 c-5 -10 -62 -142 -126 -292 -64 -151 -119 -278 -121 -282
-3 -5 43 -8 103 -8 l108 1 92 217 91 217 71 3 71 3 0 -221 0 -220 105 0 105 0
0 300 0 300 -245 0 c-226 0 -245 -1 -254 -18z"/>
<path d="M7796 5920 c-66 -12 -126 -55 -153 -110 -20 -38 -23 -60 -23 -154 0
-125 17 -176 74 -219 56 -43 95 -49 316 -45 235 3 261 11 315 87 28 40 30 49
33 158 4 130 -8 180 -56 226 -54 51 -92 60 -282 63 -96 2 -197 -1 -224 -6z
m273 -161 c63 -13 91 -45 91 -103 0 -79 -48 -109 -171 -108 -81 0 -133 16
-154 45 -22 31 -19 99 5 130 33 41 133 57 229 36z"/>
<path d="M9110 5850 l0 -80 240 0 c132 0 240 -4 240 -9 0 -15 -89 -945 -94
-979 l-5 -33 107 3 107 3 56 580 c31 319 55 583 52 588 -2 4 -161 7 -354 7
l-349 0 0 -80z"/>
<path d="M4700 5310 l0 -80 590 0 590 0 0 80 0 80 -590 0 -590 0 0 -80z"/>
<path d="M7660 5235 l0 -75 460 0 460 0 0 -30 0 -30 -460 0 -460 0 0 -175 0
-175 565 0 566 0 -3 73 -3 72 -458 3 -458 2 3 28 3 27 458 3 457 2 0 175 0
175 -565 0 -565 0 0 -75z"/>
<path d="M6190 5155 l0 -75 455 0 455 0 0 -165 0 -165 105 0 105 0 0 240 0
240 -560 0 -560 0 0 -75z"/>
<path d="M4730 4930 l0 -190 560 0 560 0 0 190 0 190 -560 0 -560 0 0 -190z
m910 5 l0 -45 -350 0 -350 0 0 45 0 45 350 0 350 0 0 -45z"/>
<path d="M9120 4097 c-28 -14 -50 -51 -50 -84 0 -19 5 -23 34 -23 29 0 34 4
39 30 7 34 44 49 86 34 45 -16 39 -52 -18 -121 -41 -49 -51 -68 -51 -97 0 -34
1 -36 35 -36 33 0 35 2 35 31 0 23 12 46 46 85 52 62 65 110 40 148 -27 42
-141 61 -196 33z"/>
<path d="M5998 4018 l-3 -83 -37 -3 -38 -3 0 54 c0 78 -20 99 -98 105 -70 5
-104 -1 -126 -24 -13 -13 -16 -43 -16 -174 0 -192 -1 -190 122 -190 103 0 118
15 118 112 l0 68 40 0 40 0 0 -90 0 -90 30 0 30 0 0 200 0 200 -30 0 -29 0 -3
-82z m-160 6 c21 -14 22 -23 22 -129 0 -128 -8 -145 -64 -145 -52 0 -56 12
-56 147 0 106 2 123 18 132 25 15 54 13 80 -5z"/>
<path d="M6530 3900 l0 -200 30 0 30 0 0 200 0 200 -30 0 -30 0 0 -200z"/>
<path d="M7060 4015 l0 -85 -40 0 -40 0 0 80 0 80 -100 0 c-55 0 -100 -3 -100
-7 -1 -5 -11 -92 -23 -195 l-23 -188 33 0 c29 0 33 4 37 33 6 34 36 287 36
301 0 4 17 6 38 4 l37 -3 3 -167 2 -168 30 0 30 0 0 90 0 90 40 0 40 0 0 -90
0 -90 35 0 35 0 0 200 0 200 -35 0 -35 0 0 -85z"/>
<path d="M7808 4063 c-3 -37 -4 -38 -45 -41 l-43 -3 0 35 0 36 -115 0 -115 0
0 -100 0 -100 115 0 115 0 0 41 0 40 43 -3 c41 -3 42 -4 45 -40 3 -35 6 -38
33 -38 l29 0 0 105 0 105 -29 0 c-27 0 -30 -3 -33 -37z m-148 -73 l0 -50 -55
0 -55 0 0 50 0 50 55 0 55 0 0 -50z"/>
<path d="M8340 4060 c0 -40 0 -40 -38 -40 -29 0 -39 5 -47 22 -14 33 -52 48
-118 48 -57 0 -94 -12 -109 -34 -4 -6 -8 -36 -8 -66 0 -30 4 -60 8 -66 15 -23
53 -34 115 -34 71 0 117 24 117 61 0 16 7 19 40 19 l40 0 0 -40 c0 -38 2 -40
30 -40 l30 0 0 105 0 105 -30 0 c-28 0 -30 -2 -30 -40z m-158 -37 c36 -33 11
-83 -42 -83 -33 0 -60 23 -60 50 0 45 65 66 102 33z"/>
<path d="M8870 3900 l0 -200 35 0 35 0 0 200 0 200 -35 0 -35 0 0 -200z"/>
<path d="M6210 3895 l0 -195 120 0 120 0 0 25 c0 25 -1 25 -85 25 l-85 0 0
145 0 145 85 0 c84 0 85 0 85 25 l0 25 -120 0 -120 0 0 -195z"/>
<path d="M8540 4065 c0 -18 5 -25 20 -25 25 0 25 -20 5 -185 -20 -161 -21
-155 15 -155 17 0 32 6 35 13 2 6 11 83 21 170 16 153 17 157 40 157 l24 0 0
-170 0 -170 35 0 35 0 0 170 c0 144 2 170 15 170 9 0 15 9 15 25 l0 25 -130 0
-130 0 0 -25z"/>
<path d="M7500 3835 l0 -24 153 -3 152 -3 3 -52 c3 -51 4 -53 33 -53 l29 0 0
80 0 80 -185 0 -185 0 0 -25z"/>
<path d="M8068 3785 c-27 -41 -48 -77 -48 -80 0 -3 13 -5 30 -5 30 0 46 18
109 123 l23 37 -34 0 c-30 0 -37 -6 -80 -75z"/>
<path d="M8168 3787 c-27 -40 -48 -76 -48 -80 0 -4 14 -7 30 -7 29 0 50 24
124 148 5 8 -2 12 -26 12 -30 0 -37 -7 -80 -73z"/>
<path d="M9160 3735 c0 -33 2 -35 35 -35 33 0 35 2 35 35 0 33 -2 35 -35 35
-33 0 -35 -2 -35 -35z"/>
<path d="M8240 3725 c0 -25 1 -25 80 -25 79 0 80 0 80 25 0 25 -1 25 -80 25
-79 0 -80 0 -80 -25z"/>
</g>
</svg>
