<?xml version="1.0" standalone="no"?>
<!DOCTYPE svg PUBLIC "-//W3C//DTD SVG 20010904//EN"
 "http://www.w3.org/TR/2001/REC-SVG-20010904/DTD/svg10.dtd">
<svg version="1.0" xmlns="http://www.w3.org/2000/svg"
 width="1500.000000pt" height="1500.000000pt" viewBox="0 0 1500.000000 1500.000000"
 preserveAspectRatio="xMidYMid meet">

<g transform="translate(0.000000,1500.000000) scale(0.100000,-0.100000)"
fill="#000000" stroke="none">
<path d="M7425 12359 c-1262 -58 -2389 -767 -2999 -1886 -224 -411 -375 -911
-417 -1382 -15 -173 -6 -636 15 -785 47 -326 116 -588 229 -871 109 -274 223
-482 420 -765 59 -85 719 -1064 1466 -2175 943 -1403 1368 -2027 1391 -2043
18 -12 46 -22 62 -22 80 0 27 -73 1175 1639 592 883 1200 1791 1352 2016 151
226 311 460 357 520 394 529 623 1110 706 1790 16 133 16 600 0 740 -39 340
-107 624 -219 920 -312 821 -939 1516 -1729 1917 -232 118 -431 195 -705 272
-198 56 -504 103 -719 111 -74 3 -155 7 -180 8 -25 2 -117 0 -205 -4z m485
-269 c562 -49 1155 -267 1609 -592 242 -174 515 -429 684 -641 405 -507 644
-1091 719 -1752 16 -144 16 -541 0 -680 -50 -421 -159 -790 -341 -1152 -98
-197 -164 -302 -326 -523 -51 -69 -665 -980 -1365 -2025 -700 -1045 -1278
-1905 -1284 -1912 -10 -11 -249 340 -2110 3107 -204 304 -467 690 -689 1015
-234 343 -421 811 -496 1245 -40 231 -46 303 -45 575 0 329 19 505 84 780 134
563 410 1083 794 1493 489 523 1073 856 1756 1002 133 28 317 56 415 63 117 8
489 6 595 -3z"/>
<path d="M6144 10661 c-45 -21 -85 -67 -103 -120 -8 -24 -11 -226 -11 -688 l0
-654 25 -75 c14 -41 37 -93 52 -117 66 -105 203 -200 328 -228 l55 -12 0 -527
0 -528 -64 -4 c-35 -2 -71 -10 -80 -17 -15 -13 -16 -75 -14 -680 l3 -666 27
-57 c35 -76 99 -143 173 -181 57 -30 66 -32 170 -32 106 0 112 1 173 34 75 41
135 103 170 179 l27 57 3 666 c2 605 1 667 -14 680 -9 7 -45 15 -80 17 l-64 4
0 528 0 527 55 12 c192 43 355 205 395 391 8 39 10 241 8 717 l-3 661 -30 44
c-34 48 -102 88 -150 88 -48 0 -116 -40 -150 -88 l-30 -44 -5 -353 c-5 -329
-6 -354 -24 -374 -24 -27 -48 -27 -72 0 -18 20 -19 45 -24 373 l-5 353 -28 42
c-82 124 -248 116 -313 -16 -17 -34 -19 -72 -24 -384 -5 -323 -6 -348 -24
-368 -24 -27 -48 -27 -72 0 -18 20 -19 45 -24 374 l-5 353 -30 44 c-34 48
-102 88 -150 88 -16 0 -49 -9 -71 -19z m100 -127 c9 -8 18 -25 21 -37 3 -12 6
-170 7 -352 3 -320 4 -331 25 -372 13 -23 39 -54 60 -70 32 -24 45 -28 104
-28 53 0 74 5 96 21 36 27 70 77 83 123 6 21 10 173 10 358 0 322 0 322 23
349 25 29 58 28 74 -4 4 -9 10 -172 13 -362 5 -333 6 -346 27 -387 13 -23 39
-54 60 -70 32 -24 45 -28 104 -28 53 0 74 5 96 21 36 27 70 77 83 123 6 21 10
173 10 358 0 322 0 322 23 349 28 32 59 27 76 -14 8 -20 11 -209 9 -677 l-3
-650 -32 -66 c-61 -123 -172 -201 -314 -218 -119 -15 -109 41 -109 -622 l0
-569 -85 0 -85 0 0 569 c0 663 10 607 -109 622 -142 17 -253 95 -314 218 l-32
66 -3 656 c-3 653 -2 656 18 682 24 31 42 34 64 11z m706 -3552 c0 -641 1
-622 -54 -695 -89 -116 -293 -116 -382 0 -55 73 -54 54 -54 695 l0 593 245 0
245 0 0 -593z"/>
<path d="M8304 10661 c-252 -68 -452 -279 -547 -576 -44 -136 -52 -191 -52
-370 0 -179 8 -234 52 -370 73 -229 232 -433 400 -515 l72 -35 0 -542 1 -543
-63 0 c-106 0 -97 61 -97 -677 0 -614 1 -644 20 -704 27 -85 78 -152 153 -199
76 -48 138 -64 231 -58 172 11 314 137 346 307 15 80 14 1262 -2 1296 -13 28
-28 33 -103 37 l-50 3 0 535 0 535 65 32 c151 75 271 205 360 388 91 187 128
372 116 572 -16 278 -114 518 -281 688 -136 140 -272 203 -450 211 -78 3 -116
0 -171 -15z m254 -126 c176 -42 329 -179 424 -381 125 -268 126 -604 3 -872
-77 -166 -192 -286 -343 -359 -68 -32 -96 -51 -103 -69 -5 -15 -9 -254 -9
-580 l0 -554 -85 0 -85 0 0 573 c0 651 9 588 -90 627 -182 71 -342 279 -406
526 -138 536 157 1091 586 1102 25 1 73 -5 108 -13z m140 -3552 c-3 -565 -4
-600 -22 -633 -35 -65 -68 -99 -119 -125 -126 -62 -277 -6 -336 125 -20 44
-21 63 -21 638 l0 592 250 0 251 0 -3 -597z"/>
<path d="M6013 5696 c-43 -37 -38 -84 19 -172 56 -84 62 -90 110 -99 33 -6 41
-4 68 23 45 45 41 83 -19 175 -27 42 -59 80 -70 86 -33 18 -78 13 -108 -13z"/>
<path d="M6359 5131 c-55 -56 -58 -49 282 -566 207 -316 318 -476 335 -484 41
-18 74 -13 105 18 33 33 37 67 14 111 -12 23 -399 614 -568 867 -60 90 -114
107 -168 54z"/>
</g>
</svg>
